<?xml version="1.0" encoding="UTF-8" standalone="no"?>
<!DOCTYPE svg PUBLIC "-//W3C//DTD SVG 1.1//EN" "http://www.w3.org/Graphics/SVG/1.1/DTD/svg11.dtd">
<svg width="100%" height="100%" viewBox="0 0 1063 355" version="1.1" xmlns="http://www.w3.org/2000/svg" xmlns:xlink="http://www.w3.org/1999/xlink" xml:space="preserve" xmlns:serif="http://www.serif.com/" style="fill-rule:evenodd;clip-rule:evenodd;stroke-linecap:round;stroke-linejoin:round;stroke-miterlimit:1.5;">
    <g transform="matrix(0.929415,0,0,0.929415,-4205.23,-5921.65)">
        <text x="4574px" y="6421.9px" style="font-family:'AlfaSlabOne-Regular', 'Alfa Slab One';font-size:50px;">The fi<tspan x="4727.05px " y="6421.9px ">v</tspan>e capitals</text>
    </g>
    <g transform="matrix(0.923616,0,0,0.996052,-4380.27,-6408.9)">
        <path d="M5877,6569.25C5877,6532.69 5844.99,6503 5805.55,6503L4826.45,6503C4787.01,6503 4755,6532.69 4755,6569.25L4755,6701.75C4755,6738.31 4787.01,6768 4826.45,6768L5805.55,6768C5844.99,6768 5877,6738.31 5877,6701.75L5877,6569.25Z" style="fill:none;stroke:black;stroke-width:3.43px;"/>
    </g>
    <g transform="matrix(0.929415,0,0,0.929415,-4203.37,-5848.23)">
        <text x="4574px" y="6398.59px" style="font-family:'Lato-Black', 'Lato', sans-serif;font-weight:900;font-size:20.833px;fill:rgb(25,153,139);">Natur<tspan x="4629.79px " y="6398.59px ">a</tspan>l resources stocks</text>
        <text x="4574px" y="6419.43px" style="font-family:'Lato-Black', 'Lato', sans-serif;font-weight:900;font-size:20.833px;fill:rgb(25,153,139);">pro<tspan x="4606.31px " y="6419.43px ">v</tspan>iding useful ecosystem</text>
        <text x="4574px" y="6440.26px" style="font-family:'Lato-Black', 'Lato', sans-serif;font-weight:900;font-size:20.833px;fill:rgb(25,153,139);">services for liv<tspan x="4710.44px " y="6440.26px ">e</tspan>lihoods</text>
    </g>
    <g transform="matrix(0.929415,0,0,0.929415,-4020.27,-5670.71)">
        <text x="4574px" y="6398.59px" style="font-family:'Lato-Black', 'Lato', sans-serif;font-weight:900;font-size:20.833px;fill:rgb(150,21,79);">P<tspan x="4586.98px " y="6398.59px ">e</tspan>ople<tspan x="4638.67px " y="6398.59px ">&apos;</tspan>s health, knowledge,</text>
        <text x="4574px" y="6419.43px" style="font-family:'Lato-Black', 'Lato', sans-serif;font-weight:900;font-size:20.833px;fill:rgb(150,21,79);">skills and motivation</text>
    </g>
    <g transform="matrix(0.929415,0,0,0.929415,-3845.54,-5848.23)">
        <text x="4574px" y="6398.59px" style="font-family:'Lato-Black', 'Lato', sans-serif;font-weight:900;font-size:20.833px;fill:rgb(34,61,77);">P<tspan x="4586.98px " y="6398.59px ">e</tspan>ople<tspan x="4638.67px " y="6398.59px ">&apos;</tspan>s network that help</text>
        <text x="4574px" y="6419.43px" style="font-family:'Lato-Black', 'Lato', sans-serif;font-weight:900;font-size:20.833px;fill:rgb(34,61,77);">ensure community cohesion</text>
        <text x="4574px" y="6440.26px" style="font-family:'Lato-Black', 'Lato', sans-serif;font-weight:900;font-size:20.833px;fill:rgb(34,61,77);">and mental and ph<tspan x="4747.42px " y="6440.26px ">y</tspan>sical</text>
        <text x="4574px" y="6461.09px" style="font-family:'Lato-Black', 'Lato', sans-serif;font-weight:900;font-size:20.833px;fill:rgb(34,61,77);">wellbeing.</text>
    </g>
    <g transform="matrix(0.929415,0,0,0.929415,-3689.4,-5670.71)">
        <text x="4574px" y="6398.59px" style="font-family:'Lato-Black', 'Lato', sans-serif;font-weight:900;font-size:20.833px;fill:rgb(143,98,82);">Monetary in<tspan x="4690.38px 4701.48px " y="6398.59px 6398.59px ">ve</tspan>stment</text>
        <text x="4574px" y="6419.43px" style="font-family:'Lato-Black', 'Lato', sans-serif;font-weight:900;font-size:20.833px;fill:rgb(143,98,82);">Example: mone<tspan x="4718.98px " y="6419.43px ">y</tspan> used to</text>
        <text x="4574px" y="6440.26px" style="font-family:'Lato-Black', 'Lato', sans-serif;font-weight:900;font-size:20.833px;fill:rgb(143,98,82);">build, maintain and oper<tspan x="4803.12px " y="6440.26px ">a</tspan>te</text>
    </g>
    <g transform="matrix(0.929415,0,0,0.929415,-3484,-5848.23)">
        <text x="4574px" y="6398.59px" style="font-family:'Lato-Black', 'Lato', sans-serif;font-weight:900;font-size:20.833px;fill:rgb(232,72,86);">Assets and infr<tspan x="4713.92px " y="6398.59px ">a</tspan>structure</text>
        <text x="4574px" y="6419.43px" style="font-family:'Lato-Black', 'Lato', sans-serif;font-weight:900;font-size:20.833px;fill:rgb(232,72,86);">that support communities</text>
    </g>
    <g transform="matrix(0.929415,0,0,0.929415,-4205.23,-5728.85)">
        <text x="4574px" y="6408.93px" style="font-family:'AlfaSlabOne-Regular', 'Alfa Slab One';font-size:33.333px;fill:rgb(25,153,139);">N<tspan x="4604.73px 4626.47px 4640.87px 4663.4px 4680.43px " y="6408.93px 6408.93px 6408.93px 6408.93px 6408.93px ">atura</tspan>l</text>
    </g>
    <g transform="matrix(0.929415,0,0,0.929415,-3847.4,-5727.45)">
        <text x="4574px" y="6408.93px" style="font-family:'AlfaSlabOne-Regular', 'Alfa Slab One';font-size:33.333px;fill:rgb(34,61,77);">S<tspan x="4597.53px " y="6408.93px ">o</tspan>cial</text>
    </g>
    <g transform="matrix(0.929415,0,0,0.929415,-4020.74,-5729.31)">
        <text x="4574px" y="6408.93px" style="font-family:'AlfaSlabOne-Regular', 'Alfa Slab One';font-size:33.333px;fill:rgb(150,21,79);">H<tspan x="4602.27px " y="6408.93px ">u</tspan>man</text>
    </g>
    <g transform="matrix(0.929415,0,0,0.929415,-3691.73,-5727.92)">
        <text x="4574px" y="6408.93px" style="font-family:'AlfaSlabOne-Regular', 'Alfa Slab One';font-size:33.333px;fill:rgb(143,98,82);">Financial</text>
    </g>
    <g transform="matrix(0.929415,0,0,0.929415,-3484.93,-5730.21)">
        <text x="4574px" y="6408.93px" style="font-family:'AlfaSlabOne-Regular', 'Alfa Slab One';font-size:33.333px;fill:rgb(232,72,86);">Man<tspan x="4658.1px " y="6408.93px ">u</tspan>fact<tspan x="4747.9px " y="6408.93px ">u</tspan>red</text>
    </g>
    <g transform="matrix(1.5269,0,0,1.5269,-7317.51,-9912.62)">
        <path d="M4859,6619L4859,6591" style="fill:none;stroke:black;stroke-width:2.16px;"/>
    </g>
    <g transform="matrix(1.02899,0,0,1.02899,-4545.03,-6617.02)">
        <path d="M4859,6619L4859,6591" style="fill:none;stroke:black;stroke-width:3.2px;"/>
    </g>
    <g transform="matrix(2.19076,0,0,2.19076,-9762.53,-14306.8)">
        <path d="M4859,6619L4859,6591" style="fill:none;stroke:black;stroke-width:1.5px;"/>
    </g>
    <g transform="matrix(0.597481,0,0,0.863028,-2271.71,-5455.28)">
        <path d="M4859,6619L4859,6591" style="fill:none;stroke:black;stroke-width:4.43px;"/>
    </g>
    <g transform="matrix(0.597481,0,0,0.863028,-2606.3,-5455.28)">
        <path d="M4859,6619L4859,6591" style="fill:none;stroke:black;stroke-width:4.43px;"/>
    </g>
</svg>
