<?xml version="1.0" standalone="no"?>
<!DOCTYPE svg PUBLIC "-//W3C//DTD SVG 20010904//EN"
 "http://www.w3.org/TR/2001/REC-SVG-20010904/DTD/svg10.dtd">
<svg version="1.0" xmlns="http://www.w3.org/2000/svg"
 width="700.000000pt" height="700.000000pt" viewBox="0 0 700.000000 700.000000"
 preserveAspectRatio="xMidYMid meet">
<metadata>
Created by potrace 1.14, written by Peter Selinger 2001-2017
</metadata>
<g transform="translate(0.000000,700.000000) scale(0.100000,-0.100000)"
fill="#000000" stroke="none">
<path d="M1531 6979 c-54 -33 -54 -34 -52 -249 6 -669 -241 -1065 -749 -1203
-86 -24 -155 -36 -290 -52 -25 -3 -118 -5 -208 -6 l-162 0 -35 -30 -35 -31 0
-804 0 -804 29 -32 29 -33 1627 0 1627 0 29 33 29 32 0 1556 c0 1688 3 1595
-53 1626 -17 10 -213 13 -889 14 -822 1 -868 1 -897 -17z"/>
<path d="M3581 6978 c-18 -12 -37 -32 -42 -45 -12 -33 -12 -5584 1 -5617 19
-51 88 -76 144 -52 39 16 47 29 151 261 37 83 87 192 111 244 24 51 44 95 44
97 0 2 13 32 29 66 15 35 41 90 56 123 35 78 301 667 327 725 11 25 31 68 44
95 12 28 35 77 50 110 23 53 170 377 237 525 14 30 35 78 47 105 13 28 36 79
52 115 17 36 49 108 73 160 24 52 56 124 72 160 17 36 74 164 128 285 55 121
104 228 110 237 9 14 25 -13 90 -160 43 -97 132 -296 198 -442 154 -344 149
-332 190 -425 36 -83 72 -163 112 -250 13 -27 59 -131 103 -230 44 -99 96
-215 116 -258 20 -43 36 -80 36 -83 0 -2 15 -36 34 -76 18 -40 80 -176 136
-303 56 -126 112 -252 125 -280 13 -27 30 -66 38 -85 9 -19 34 -75 56 -123 23
-49 41 -90 41 -92 0 -3 14 -35 31 -72 17 -38 58 -129 91 -203 90 -202 95 -210
136 -227 47 -20 103 -4 132 37 l21 29 -1 2789 c0 1792 -3 2799 -9 2815 -14 35
-56 61 -100 60 -20 0 -119 -28 -221 -61 -102 -33 -286 -93 -410 -132 -124 -40
-295 -94 -380 -122 -322 -104 -367 -118 -442 -142 l-77 -24 -78 23 c-43 13
-204 61 -358 108 -154 47 -378 115 -499 151 -120 37 -222 68 -225 71 -4 2 -18
6 -32 9 -24 5 -41 10 -274 81 -153 46 -173 49 -214 23z"/>
<path d="M5160 3928 c-29 -20 -50 -65 -182 -378 -82 -195 -155 -368 -163 -385
-7 -16 -42 -100 -78 -185 -89 -215 -465 -1108 -482 -1145 -12 -29 -109 -259
-285 -675 -45 -107 -88 -208 -95 -225 -7 -16 -43 -102 -80 -190 -37 -88 -88
-207 -112 -265 -25 -58 -58 -139 -75 -180 -16 -41 -33 -79 -38 -85 -10 -13
-24 -76 -21 -95 6 -40 26 -70 56 -84 29 -14 203 -16 1653 -16 1067 1 1630 4
1649 11 66 24 83 99 41 189 -14 30 -74 163 -132 295 -59 132 -115 258 -125
280 -10 22 -83 184 -161 360 -78 176 -158 353 -176 393 -19 41 -34 75 -34 78
0 2 -16 39 -36 81 -20 43 -51 112 -69 154 -18 41 -44 100 -58 130 -14 30 -118
263 -232 519 -114 256 -215 483 -225 505 -40 88 -311 696 -352 790 -46 104
-84 145 -133 145 -12 0 -37 -10 -55 -22z"/>
<path d="M65 3568 c-15 -12 -33 -35 -39 -52 -18 -46 -16 -3388 2 -3432 14 -34
58 -64 93 -64 26 0 80 29 349 190 216 129 481 286 521 310 23 13 281 167 319
190 83 51 231 138 253 149 26 14 35 10 209 -79 101 -51 228 -116 283 -145 55
-29 204 -106 330 -171 127 -65 320 -164 430 -221 452 -232 441 -228 481 -217
50 12 79 53 78 107 -2 42 -13 69 -160 376 -35 73 -64 135 -64 136 0 2 -34 74
-75 160 -41 87 -75 158 -75 160 0 1 -29 63 -63 136 -35 74 -75 159 -90 189
-46 99 -104 222 -156 334 -28 60 -50 110 -49 111 3 3 163 54 503 161 167 53
177 57 199 95 15 25 17 72 21 391 3 200 7 533 10 741 4 323 2 383 -10 408 -33
63 83 59 -1673 59 l-1599 0 -28 -22z"/>
</g>
</svg>
