<?xml version="1.0" standalone="no"?>
<!DOCTYPE svg PUBLIC "-//W3C//DTD SVG 20010904//EN"
 "http://www.w3.org/TR/2001/REC-SVG-20010904/DTD/svg10.dtd">
<svg version="1.0" xmlns="http://www.w3.org/2000/svg"
 width="100.000000pt" height="100.000000pt" viewBox="0 0 100.000000 100.000000"
 preserveAspectRatio="xMidYMid meet">
<metadata>
Created by potrace 1.14, written by Peter Selinger 2001-2017
</metadata>
<g transform="translate(0.000000,100.000000) scale(0.100000,-0.100000)"
fill="#000000" stroke="none">
<path d="M390 924 c0 -3 19 -32 41 -65 40 -57 44 -59 85 -59 l44 0 0 -61 c0
-58 2 -63 68 -155 l67 -95 3 156 3 155 44 0 45 0 0 -221 0 -221 63 -89 c34
-49 65 -89 70 -89 4 0 7 169 7 375 l0 375 -270 0 c-148 0 -270 -3 -270 -6z"/>
<path d="M300 552 l0 -202 -55 0 -55 0 0 65 0 65 -60 0 -60 0 0 -130 0 -130
200 0 200 0 0 151 0 151 -77 107 c-42 58 -80 110 -85 116 -4 5 -8 -82 -8 -193z"/>
<path d="M560 232 l0 -162 33 0 c17 0 49 3 70 6 l37 7 0 62 c0 60 -2 64 -61
146 -34 46 -65 88 -70 94 -5 5 -9 -59 -9 -153z"/>
</g>
</svg>
