<?xml version="1.0" standalone="no"?>
<!DOCTYPE svg PUBLIC "-//W3C//DTD SVG 20010904//EN"
 "http://www.w3.org/TR/2001/REC-SVG-20010904/DTD/svg10.dtd">
<svg version="1.0" xmlns="http://www.w3.org/2000/svg"
 width="82.000000pt" height="82.000000pt" viewBox="0 0 82.000000 82.000000"
 preserveAspectRatio="xMidYMid meet">
<metadata>
Created by potrace 1.14, written by Peter Selinger 2001-2017
</metadata>
<g transform="translate(0.000000,82.000000) scale(0.100000,-0.100000)"
fill="#000000" stroke="none">
<path d="M177 803 c-2 -4 -5 -25 -5 -46 -2 -53 -29 -94 -74 -112 -21 -8 -42
-14 -46 -14 -4 1 -17 1 -30 0 -22 -1 -23 -3 -20 -98 l3 -98 189 -3 c114 -1
192 1 196 7 3 6 5 90 5 188 l0 178 -107 3 c-58 1 -108 -1 -111 -5z"/>
<path d="M418 798 c-3 -11 -3 -601 1 -648 2 -29 28 13 87 145 32 72 70 154 84
183 l25 53 59 -133 c99 -222 117 -258 127 -253 11 7 13 665 2 665 -5 0 -48
-13 -97 -28 l-89 -28 -81 24 c-44 13 -88 26 -97 29 -9 2 -18 -1 -21 -9z"/>
<path d="M511 236 c-50 -118 -91 -220 -91 -225 0 -7 67 -11 201 -11 187 0 201
1 195 18 -30 82 -194 432 -203 432 -6 0 -52 -97 -102 -214z"/>
<path d="M5 410 c-7 -12 -3 -400 5 -405 4 -3 46 17 92 45 l83 50 102 -52 c57
-29 105 -50 107 -47 3 3 -15 48 -39 101 l-43 97 41 14 42 14 1 91 c0 51 -2 92
-5 93 -24 4 -384 3 -386 -1z"/>
</g>
</svg>
