<?xml version="1.0" encoding="UTF-8" standalone="no"?>
<!DOCTYPE svg PUBLIC "-//W3C//DTD SVG 1.1//EN" "http://www.w3.org/Graphics/SVG/1.1/DTD/svg11.dtd">
<svg width="100%" height="100%" viewBox="0 0 126 23" version="1.1" xmlns="http://www.w3.org/2000/svg" xmlns:xlink="http://www.w3.org/1999/xlink" xml:space="preserve" xmlns:serif="http://www.serif.com/" style="fill-rule:evenodd;clip-rule:evenodd;stroke-linecap:round;stroke-linejoin:round;stroke-miterlimit:1.5;">
    <g transform="matrix(1,0,0,1,-300.105,-492.354)">
        <g transform="matrix(0.297333,0.000876043,-0.0009797,0.332514,385.76,273.318)">
            <path d="M103.076,663.089L133.079,723.094L73.074,723.094L103.076,663.089Z" style="fill:none;stroke:white;stroke-width:7.93px;"/>
        </g>
        <g transform="matrix(0.249009,0.000733665,-0.00083697,0.284071,310.237,305.722)">
            <path d="M121.718,661.406L84.436,666.28L51.509,661.406L51.509,731.615L86.799,708.054L121.718,731.615L121.718,661.406Z" style="fill:none;stroke:white;stroke-width:9.36px;"/>
        </g>
        <g transform="matrix(0.249009,0.000733665,-0.00083697,0.284071,289.141,305.664)">
            <path d="M121.718,661.406L84.436,661.377C85.774,685.403 75.396,697.711 51.509,696.51L51.509,731.615L121.718,731.615L121.718,661.406Z" style="fill:none;stroke:white;stroke-width:9.36px;"/>
        </g>
        <g transform="matrix(0.249009,0.000733665,0.00083697,-0.284071,351.206,701.554)">
            <path d="M121.718,661.406L84.436,666.28L51.509,661.406L51.509,731.615L86.799,708.054L121.718,731.615L121.718,661.406Z" style="fill:none;stroke:white;stroke-width:9.36px;"/>
        </g>
        <g transform="matrix(0.249009,0.000733665,0.00083697,-0.284071,372.302,701.612)">
            <path d="M121.718,661.406L84.086,679.636L51.509,661.406L51.509,731.615L121.718,731.615L121.326,701.612L104.227,696.51L121.718,661.406Z" style="fill:none;stroke:white;stroke-width:9.36px;"/>
        </g>
        <g transform="matrix(0.249009,0.000733665,-0.00083697,0.284071,310.38,305.718)">
            <circle cx="170.644" cy="696.51" r="35.105" style="fill:none;stroke:white;stroke-width:9.36px;"/>
        </g>
    </g>
</svg>
