<?xml version="1.0" encoding="UTF-8" standalone="no"?>
<!DOCTYPE svg PUBLIC "-//W3C//DTD SVG 1.1//EN" "http://www.w3.org/Graphics/SVG/1.1/DTD/svg11.dtd">
<svg width="100%" height="100%" viewBox="0 0 156 29" version="1.1" xmlns="http://www.w3.org/2000/svg" xmlns:xlink="http://www.w3.org/1999/xlink" xml:space="preserve" xmlns:serif="http://www.serif.com/" style="fill-rule:evenodd;clip-rule:evenodd;stroke-linecap:round;stroke-linejoin:round;stroke-miterlimit:1.5;">
    <g transform="matrix(1,0,0,1,-259.469,-492.854)">
        <g transform="matrix(0.396557,0.00116839,-0.00130664,0.443479,362.792,199.806)">
            <path d="M103.076,663.089L133.079,723.094L73.074,723.094L103.076,663.089Z" style="fill:none;stroke:white;stroke-width:3.57px;"/>
        </g>
        <g transform="matrix(0.332107,0.000978499,-0.00111628,0.378869,270.051,243.023)">
            <path d="M121.718,661.406L84.436,666.28L51.509,661.406L51.509,731.615L86.799,708.054L121.718,731.615L121.718,661.406Z" style="fill:none;stroke:white;stroke-width:4.21px;"/>
        </g>
        <g transform="matrix(0.332107,0.000978499,-0.00111628,0.378869,243.93,242.946)">
            <path d="M121.718,661.406L84.436,661.377C85.774,685.403 75.396,697.711 51.509,696.51L51.509,731.615L121.718,731.615L121.718,661.406Z" style="fill:none;stroke:white;stroke-width:4.21px;"/>
        </g>
        <g transform="matrix(0.332107,0.000978499,0.00111628,-0.378869,320.738,770.949)">
            <path d="M121.718,661.406L84.436,666.28L51.509,661.406L51.509,731.615L86.799,708.054L121.718,731.615L121.718,661.406Z" style="fill:none;stroke:white;stroke-width:4.21px;"/>
        </g>
        <g transform="matrix(0.332107,0.000978499,0.00111628,-0.378869,346.859,771.026)">
            <path d="M121.718,661.406L84.086,679.636L51.509,661.406L51.509,731.615L121.718,731.615L121.326,701.612L104.227,696.51L121.718,661.406Z" style="fill:none;stroke:white;stroke-width:4.21px;"/>
        </g>
        <g transform="matrix(0.332107,0.000978499,-0.00111628,0.378869,268.265,243.017)">
            <circle cx="170.644" cy="696.51" r="35.105" style="fill:none;stroke:white;stroke-width:4.21px;"/>
        </g>
    </g>
</svg>
