<?xml version="1.0" encoding="UTF-8" standalone="no"?>
<!DOCTYPE svg PUBLIC "-//W3C//DTD SVG 1.1//EN" "http://www.w3.org/Graphics/SVG/1.1/DTD/svg11.dtd">
<svg width="100%" height="100%" viewBox="0 0 126 23" version="1.1" xmlns="http://www.w3.org/2000/svg" xmlns:xlink="http://www.w3.org/1999/xlink" xml:space="preserve" xmlns:serif="http://www.serif.com/" style="fill-rule:evenodd;clip-rule:evenodd;stroke-linecap:round;stroke-linejoin:round;stroke-miterlimit:1.5;">
    <g transform="matrix(1,0,0,1,-296.388,-521.123)">
        <g transform="matrix(0.297333,0.000876043,-0.0009797,0.332514,382.043,302.087)">
            <path d="M103.076,663.089L133.079,723.094L73.074,723.094L103.076,663.089Z" style="fill:none;stroke:rgb(44,119,239);stroke-width:7.93px;"/>
        </g>
        <g transform="matrix(0.249009,0.000733665,-0.00083697,0.284071,306.521,334.491)">
            <path d="M121.718,661.406L84.436,666.28L51.509,661.406L51.509,731.615L86.799,708.054L121.718,731.615L121.718,661.406Z" style="fill:none;stroke:rgb(238,42,90);stroke-width:9.36px;"/>
        </g>
        <g transform="matrix(0.249009,0.000733665,-0.00083697,0.284071,285.424,334.433)">
            <path d="M121.718,661.406L84.436,661.377C85.774,685.403 75.396,697.711 51.509,696.51L51.509,731.615L121.718,731.615L121.718,661.406Z" style="fill:none;stroke:rgb(114,110,121);stroke-width:9.36px;"/>
        </g>
        <g transform="matrix(0.249009,0.000733665,0.00083697,-0.284071,347.489,730.323)">
            <path d="M121.718,661.406L84.436,666.28L51.509,661.406L51.509,731.615L86.799,708.054L121.718,731.615L121.718,661.406Z" style="fill:none;stroke:rgb(255,176,0);stroke-width:9.36px;"/>
        </g>
        <g transform="matrix(0.249009,0.000733665,0.00083697,-0.284071,368.586,730.381)">
            <path d="M121.718,661.406L84.086,679.636L51.509,661.406L51.509,731.615L121.718,731.615L121.326,701.612L104.227,696.51L121.718,661.406Z" style="fill:none;stroke:rgb(92,178,63);stroke-width:9.36px;"/>
        </g>
        <g transform="matrix(0.249009,0.000733665,-0.00083697,0.284071,306.663,334.487)">
            <circle cx="170.644" cy="696.51" r="35.105" style="fill:none;stroke:rgb(127,64,216);stroke-width:9.36px;"/>
        </g>
    </g>
</svg>
